# xmcd CD database file
#
# Track frame offsets:
#	150
#	47710
#	62373
#	112502
#	142613
#	183670
#
# Disc length: 3352 seconds
#
# Revision: 0
# Processed by: cddbd v1.5.2PL0 Copyright (c) Steve Scherf et al.
# Submitted via: CDex 1.70beta2
#
DISCID=400d1606
DTITLE=Dexter Gordon - The Complete Hamburg Concert 1974 Vol 01
DYEAR=1974
DGENRE=Jazz
TTITLE0=Psychedelic Sally
TTITLE1=Contacts
TTITLE2=Every Man is A King
TTITLE3=Drinking Song
TTITLE4=The Waltz
TTITLE5=Mo' Joe
EXTD=YEAR: 1974
EXTT0=
EXTT1=
EXTT2=
EXTT3=
EXTT4=
EXTT5=
PLAYORDER=
